Coordinates
version=1
nRows=27
nColumns=38
inDegrees=no

Units are S.I. units (second, meters, Newtons, ...)
If the header above contains a line with 'inDegrees', this indicates whether rotational values are in degrees (yes) or radians (no).

endheader
time	pelvis_tilt	pelvis_list	pelvis_rotation	pelvis_tx	pelvis_ty	pelvis_tz	hip_flexion_r	hip_adduction_r	hip_rotation_r	knee_angle_r	ankle_angle_r	subtalar_angle_r	mtp_angle_r	hip_flexion_l	hip_adduction_l	hip_rotation_l	knee_angle_l	ankle_angle_l	subtalar_angle_l	mtp_angle_l	lumbar_extension	lumbar_bending	lumbar_rotation	arm_flex_r	arm_add_r	arm_rot_r	elbow_flex_r	pro_sup_r	wrist_flex_r	wrist_dev_r	arm_flex_l	arm_add_l	arm_rot_l	elbow_flex_l	pro_sup_l	wrist_flex_l	wrist_dev_l
25	-3.01354	1.45719	-1.61499	0.744529	0.195541	1.08779	-0.0243625	-0.0155745	-0.187915	0.441861	-0.333766	0	0	0.235334	-0.0514973	-0.0763087	0.431825	-0.334064	0	0	-0.253002	-0.00371549	0.14449	0.66453	-0.288784	0.409435	1.02154	1.5708	0	0	0.697411	-0.00320592	0.225481	0.759899	1.5708	0	0
25.01	-2.99723	1.4506	-1.62769	0.745282	0.189904	1.08914	-0.0317951	-0.0152778	-0.191369	0.429596	-0.3441	0	0	0.230355	-0.0514597	-0.0772596	0.464121	-0.323095	0	0	-0.259812	-0.00636036	0.143454	0.663119	-0.289598	0.407895	1.02207	1.5708	0	0	0.700483	-0.00308017	0.230788	0.755869	1.5708	0	0
25.02	-2.98133	1.44639	-1.64047	0.745989	0.18446	1.09014	-0.0357355	-0.0153186	-0.194215	0.420112	-0.348018	0	0	0.226718	-0.0514098	-0.0779958	0.495958	-0.31548	0	0	-0.263507	-0.00874408	0.142019	0.660981	-0.289737	0.406777	1.02223	1.5708	0	0	0.700657	-0.0029153	0.232632	0.754081	1.5708	0	0
25.03	-2.97398	1.44181	-1.64513	0.746659	0.179102	1.09109	-0.0401002	-0.0147019	-0.195849	0.409269	-0.354782	0	0	0.222294	-0.0529697	-0.0814271	0.529999	-0.3058	0	0	-0.267369	-0.00997108	0.141425	0.658252	-0.290917	0.405748	1.02374	1.5708	0	0	0.700679	-0.00260785	0.23537	0.752327	1.5708	0	0
25.04	-2.97156	1.43748	-1.64538	0.747262	0.173844	1.09192	-0.0436959	-0.0139917	-0.196394	0.398858	-0.362196	0	0	0.217362	-0.0555791	-0.0867188	0.564853	-0.29671	0	0	-0.270584	-0.0102694	0.141405	0.654778	-0.29273	0.404695	1.0267	1.5708	0	0	0.700193	-0.00231025	0.238481	0.751031	1.5708	0	0
25.05	-2.96912	1.43418	-1.64595	0.747788	0.168734	1.0925	-0.0466587	-0.0128138	-0.196994	0.389735	-0.363474	0	0	0.212627	-0.0585503	-0.0928541	0.599833	-0.291427	0	0	-0.271929	-0.00982486	0.14013	0.652418	-0.293766	0.406294	1.02803	1.5708	0	0	0.697165	-0.00243305	0.237864	0.752126	1.5708	0	0
25.06	-2.97037	1.43073	-1.64317	0.748273	0.163746	1.09299	-0.0502506	-0.010963	-0.197503	0.380353	-0.366244	0	0	0.206384	-0.0624824	-0.0998264	0.634421	-0.283667	0	0	-0.273084	-0.00944327	0.140632	0.647974	-0.296163	0.405539	1.03131	1.5708	0	0	0.69517	-0.00143001	0.239263	0.751594	1.5708	0	0
25.07	-2.97405	1.42768	-1.63837	0.748721	0.158868	1.09337	-0.053491	-0.00879297	-0.19698	0.37076	-0.369199	0	0	0.198713	-0.0667547	-0.106084	0.667282	-0.275415	0	0	-0.273384	-0.0085957	0.141612	0.643128	-0.298843	0.404824	1.03444	1.5708	0	0	0.692691	7.10919e-05	0.240085	0.7508	1.5708	0	0
25.08	-2.98126	1.425	-1.63026	0.749074	0.154049	1.09362	-0.0560073	-0.00637281	-0.195804	0.361621	-0.372466	0	0	0.190035	-0.0714842	-0.111487	0.698944	-0.267801	0	0	-0.27296	-0.0068587	0.142716	0.638244	-0.301738	0.404765	1.03739	1.5708	0	0	0.689671	0.00181547	0.240423	0.749998	1.5708	0	0
25.09	-2.99212	1.42291	-1.61878	0.749324	0.149251	1.09372	-0.0578694	-0.00344369	-0.193697	0.352078	-0.376748	0	0	0.180928	-0.0767016	-0.116186	0.729726	-0.260212	0	0	-0.271751	-0.00434443	0.144124	0.633331	-0.305344	0.405248	1.04063	1.5708	0	0	0.686335	0.00383723	0.240766	0.749214	1.5708	0	0
25.1	-3.00654	1.4211	-1.60388	0.749509	0.144515	1.09371	-0.0597465	0.000250518	-0.190959	0.341986	-0.381316	0	0	0.171201	-0.082655	-0.120592	0.759741	-0.253268	0	0	-0.27007	-0.00128561	0.145669	0.628017	-0.309269	0.405236	1.04448	1.5708	0	0	0.682613	0.0059533	0.241125	0.749036	1.5708	0	0
25.11	-3.02282	1.41954	-1.58709	0.749599	0.139796	1.09359	-0.0610199	0.00410575	-0.188215	0.332892	-0.38549	0	0	0.160887	-0.0887379	-0.123602	0.788762	-0.247194	0	0	-0.267947	0.00234272	0.146691	0.622729	-0.312702	0.405017	1.04829	1.5708	0	0	0.678376	0.00780688	0.241177	0.74969	1.5708	0	0
25.12	-3.03848	1.41656	-1.57068	0.749657	0.134983	1.09348	-0.063508	0.00765992	-0.18575	0.324078	-0.389988	0	0	0.147953	-0.0943272	-0.124737	0.815588	-0.241836	0	0	-0.267334	0.00600953	0.147248	0.618486	-0.316111	0.405295	1.05154	1.5708	0	0	0.674763	0.00965554	0.240989	0.750454	1.5708	0	0
25.13	-3.05338	1.41439	-1.55508	0.749668	0.13021	1.09326	-0.0645664	0.0108512	-0.183092	0.316389	-0.393709	0	0	0.134816	-0.0994751	-0.124695	0.840033	-0.23869	0	0	-0.265502	0.00966256	0.147555	0.614288	-0.319093	0.405449	1.05388	1.5708	0	0	0.670726	0.0113313	0.240669	0.751327	1.5708	0	0
25.14	-3.07087	1.41199	-1.53692	0.74971	0.125439	1.09303	-0.0658798	0.0147195	-0.179469	0.308636	-0.397651	0	0	0.120622	-0.105358	-0.124871	0.862618	-0.235967	0	0	-0.263853	0.0134955	0.147884	0.61016	-0.321832	0.405301	1.0559	1.5708	0	0	0.666648	0.0130697	0.240154	0.752374	1.5708	0	0
25.15	-3.09145	1.40719	-1.51499	0.749629	0.120561	1.09299	-0.070796	0.019478	-0.175459	0.297349	-0.409509	0	0	0.103186	-0.111968	-0.124502	0.883328	-0.232216	0	0	-0.265026	0.0184872	0.147014	0.607849	-0.324672	0.407092	1.0575	1.5708	0	0	0.662597	0.0147573	0.238328	0.754367	1.5708	0	0
25.16	-3.10865	1.40578	-1.49615	0.749445	0.1158	1.09259	-0.0707399	0.0231499	-0.172383	0.289994	-0.413395	0	0	0.0884267	-0.11702	-0.1221	0.901244	-0.231661	0	0	-0.262022	0.0223929	0.146197	0.603228	-0.326901	0.406288	1.05929	1.5708	0	0	0.657983	0.0163128	0.238235	0.755871	1.5708	0	0
25.17	-3.12561	1.40488	-1.47729	0.749158	0.110986	1.09208	-0.0694032	0.0264425	-0.169829	0.28391	-0.416899	0	0	0.073665	-0.121569	-0.119137	0.916626	-0.232011	0	0	-0.258463	0.0262744	0.145012	0.598417	-0.329128	0.405151	1.06127	1.5708	0	0	0.653468	0.0176543	0.238658	0.757501	1.5708	0	0
25.18	3.13988	1.40396	-1.4575	0.748766	0.106125	1.09156	-0.0675508	0.0296955	-0.167475	0.278634	-0.420358	0	0	0.0583222	-0.125991	-0.116183	0.929353	-0.233195	0	0	-0.254899	0.0302453	0.143587	0.593678	-0.33131	0.403767	1.06308	1.5708	0	0	0.648956	0.0191409	0.238843	0.759263	1.5708	0	0
25.19	3.12184	1.40333	-1.43716	0.748239	0.101199	1.09099	-0.064928	0.0328009	-0.16493	0.273883	-0.423633	0	0	0.0428787	-0.130217	-0.113377	0.939384	-0.235132	0	0	-0.251007	0.0343371	0.141892	0.588931	-0.333403	0.402034	1.06478	1.5708	0	0	0.64445	0.0207203	0.239037	0.760971	1.5708	0	0
25.2	3.10504	1.40414	-1.41813	0.747649	0.0962554	1.09027	-0.0592101	0.0349741	-0.163435	0.273147	-0.420522	0	0	0.0282938	-0.133619	-0.110717	0.946251	-0.235447	0	0	-0.245283	0.0379418	0.139745	0.584481	-0.335108	0.401277	1.06536	1.5708	0	0	0.639654	0.0217004	0.239978	0.762374	1.5708	0	0
25.21	3.0874	1.40442	-1.39791	0.746927	0.0911312	1.08962	-0.0544135	0.0373972	-0.161549	0.270136	-0.424269	0	0	0.0126902	-0.136791	-0.107855	0.949567	-0.237713	0	0	-0.240831	0.0417049	0.137325	0.580232	-0.337029	0.399943	1.06693	1.5708	0	0	0.635188	0.0231003	0.239979	0.764406	1.5708	0	0
25.22	3.07007	1.40537	-1.37792	0.746141	0.0859372	1.08887	-0.0484871	0.0397454	-0.159903	0.26825	-0.427182	0	0	-0.00247144	-0.139621	-0.105433	0.949881	-0.240568	0	0	-0.235736	0.0452442	0.134766	0.575936	-0.338876	0.398103	1.06846	1.5708	0	0	0.630951	0.0243232	0.240484	0.766387	1.5708	0	0
25.23	3.05292	1.40708	-1.35826	0.745302	0.080657	1.088	-0.0413655	0.0420987	-0.157418	0.26685	-0.429266	0	0	-0.0169712	-0.142023	-0.103735	0.947352	-0.244119	0	0	-0.229954	0.0484496	0.132309	0.57167	-0.340707	0.396014	1.06991	1.5708	0	0	0.626885	0.0255168	0.241493	0.768207	1.5708	0	0
25.24	3.03511	1.40915	-1.33798	0.744379	0.0752563	1.08709	-0.032964	0.0439105	-0.154749	0.266491	-0.431584	0	0	-0.0311713	-0.143946	-0.102357	0.941857	-0.24871	0	0	-0.224155	0.051483	0.129882	0.567507	-0.342617	0.393778	1.07161	1.5708	0	0	0.623068	0.0270743	0.242019	0.770077	1.5708	0	0
25.25	3.01644	1.41126	-1.3169	0.743393	0.0697653	1.08617	-0.0245397	0.0456257	-0.15151	0.26572	-0.434303	0	0	-0.0454281	-0.14557	-0.10134	0.93305	-0.255045	0	0	-0.218516	0.0545059	0.127526	0.563713	-0.344679	0.391501	1.07321	1.5708	0	0	0.619631	0.0287741	0.24255	0.771761	1.5708	0	0
25.26	2.99777	1.41348	-1.29622	0.74238	0.0642204	1.08523	-0.016232	0.0472746	-0.147118	0.264054	-0.437293	0	0	-0.0597865	-0.146767	-0.101138	0.920723	-0.263612	0	0	-0.212885	0.0572808	0.125515	0.560201	-0.346817	0.389059	1.07458	1.5708	0	0	0.616399	0.0306881	0.242889	0.77327	1.5708	0	0
